<svg width="80" height="80" viewBox="0 0 80 80" fill="none" xmlns="http://www.w3.org/2000/svg">
<g clip-path="url(#clip0_6_91)">
<path d="M0 5C0 2.23438 2.23438 0 5 0H75C77.7656 0 80 2.23438 80 5C80 7.76562 77.7656 10 75 10V70C77.7656 70 80 72.2344 80 75C80 77.7656 77.7656 80 75 80H47.5V72.5C47.5 68.3594 44.1406 65 40 65C35.8594 65 32.5 68.3594 32.5 72.5V80H5C2.23438 80 0 77.7656 0 75C0 72.2344 2.23438 70 5 70V10C2.23438 10 0 7.76562 0 5ZM15 17.5V22.5C15 23.875 16.125 25 17.5 25H22.5C23.875 25 25 23.875 25 22.5V17.5C25 16.125 23.875 15 22.5 15H17.5C16.125 15 15 16.125 15 17.5ZM37.5 15C36.125 15 35 16.125 35 17.5V22.5C35 23.875 36.125 25 37.5 25H42.5C43.875 25 45 23.875 45 22.5V17.5C45 16.125 43.875 15 42.5 15H37.5ZM55 17.5V22.5C55 23.875 56.125 25 57.5 25H62.5C63.875 25 65 23.875 65 22.5V17.5C65 16.125 63.875 15 62.5 15H57.5C56.125 15 55 16.125 55 17.5ZM17.5 30C16.125 30 15 31.125 15 32.5V37.5C15 38.875 16.125 40 17.5 40H22.5C23.875 40 25 38.875 25 37.5V32.5C25 31.125 23.875 30 22.5 30H17.5ZM35 32.5V37.5C35 38.875 36.125 40 37.5 40H42.5C43.875 40 45 38.875 45 37.5V32.5C45 31.125 43.875 30 42.5 30H37.5C36.125 30 35 31.125 35 32.5ZM57.5 30C56.125 30 55 31.125 55 32.5V37.5C55 38.875 56.125 40 57.5 40H62.5C63.875 40 65 38.875 65 37.5V32.5C65 31.125 63.875 30 62.5 30H57.5ZM51.25 60C53.3281 60 55.0469 58.2969 54.5312 56.2812C52.875 49.7969 47 45 40 45C33 45 27.1094 49.7969 25.4688 56.2812C24.9531 58.2813 26.6875 60 28.75 60H51.25Z" fill="#1E3D58"/>
</g>
<defs>
<clipPath id="clip0_6_91">
<rect width="80" height="80" fill="white"/>
</clipPath>
</defs>
</svg>
